{
  "accessors": [
    {
      "bufferView": 2,
      "componentType": 5126,
      "count": 7081,
      "max": [
        6.075144290924072,
        8.304964065551758,
        7.7995524406433105
      ],
      "min": [
        -10.809876441955566,
        -4.785393238067627,
        -6.346492290496826
      ],
      "type": "VEC3"
    },
    {
      "bufferView": 2,
      "byteOffset": 84972,
      "componentType": 5126,
      "count": 7081,
      "max": [
        0.9992948770523071,
        0.9844356179237366,
        0.9720848202705383
      ],
      "min": [
        -0.9852331280708313,
        -0.9856615662574768,
        -0.9714683890342712
      ],
      "type": "VEC3"
    },
    {
      "bufferView": 3,
      "componentType": 5126,
      "count": 7081,
      "max": [
        0.969801664352417,
        0.9666292071342468,
        0.9562081098556519,
        1.0
      ],
      "min": [
        -0.967677116394043,
        -0.9440786242485046,
        -0.9698860049247742,
        -1.0
      ],
      "type": "VEC4"
    },
    {
      "bufferView": 1,
      "componentType": 5126,
      "count": 7081,
      "max": [
        1.8039261102676392,
        1.0001291036605835
      ],
      "min": [
        -0.31652122735977173,
        -0.00026915152557194233
      ],
      "type": "VEC2"
    },
    {
      "bufferView": 1,
      "byteOffset": 56648,
      "componentType": 5126,
      "count": 7081,
      "max": [
        1.8039261102676392,
        1.0001291036605835
      ],
      "min": [
        -0.31652122735977173,
        -0.00026915152557194233
      ],
      "type": "VEC2"
    },
    {
      "bufferView": 0,
      "componentType": 5125,
      "count": 11622,
      "type": "SCALAR"
    }
  ],
  "asset": {
    "extras": {
      "author": "Vlad Dyuhaaa (https://sketchfab.com/Dyuhaaa)",
      "license": "CC-BY-4.0 (http://creativecommons.org/licenses/by/4.0/)",
      "source": "https://sketchfab.com/3d-models/suburbian-house-7af6b3aa47af45f0a8693cca9ccf0c50",
      "title": "Suburbian House"
    },
    "generator": "Sketchfab-12.65.0",
    "version": "2.0"
  },
  "bufferViews": [
    {
      "buffer": 0,
      "byteLength": 46488,
      "name": "floatBufferViews",
      "target": 34963
    },
    {
      "buffer": 0,
      "byteLength": 113296,
      "byteOffset": 46488,
      "byteStride": 8,
      "name": "floatBufferViews",
      "target": 34962
    },
    {
      "buffer": 0,
      "byteLength": 169944,
      "byteOffset": 159784,
      "byteStride": 12,
      "name": "floatBufferViews",
      "target": 34962
    },
    {
      "buffer": 0,
      "byteLength": 113296,
      "byteOffset": 329728,
      "byteStride": 16,
      "name": "floatBufferViews",
      "target": 34962
    }
  ],
  "buffers": [
    {
      "byteLength": 443024,
      "uri": "scene.bin"
    }
  ],
  "images": [
    {
      "uri": "textures/atlas_baseColor.png"
    },
    {
      "uri": "textures/atlas_metallicRoughness.png"
    },
    {
      "uri": "textures/atlas_normal.png"
    }
  ],
  "materials": [
    {
      "doubleSided": true,
      "name": "atlas",
      "normalTexture": {
        "index": 2
      },
      "pbrMetallicRoughness": {
        "baseColorTexture": {
          "index": 0
        },
        "metallicRoughnessTexture": {
          "index": 1
        }
      }
    }
  ],
  "meshes": [
    {
      "name": "House_atlas_0",
      "primitives": [
        {
          "attributes": {
            "NORMAL": 1,
            "POSITION": 0,
            "TANGENT": 2,
            "TEXCOORD_0": 3,
            "TEXCOORD_1": 4
          },
          "indices": 5,
          "material": 0,
          "mode": 4
        }
      ]
    }
  ],
  "nodes": [
    {
      "children": [
        1
      ],
      "matrix": [
        1.0,
        0.0,
        0.0,
        0.0,
        0.0,
        2.220446049250313e-16,
        -1.0,
        0.0,
        0.0,
        1.0,
        2.220446049250313e-16,
        0.0,
        0.0,
        0.0,
        0.0,
        1.0
      ],
      "name": "Sketchfab_model"
    },
    {
      "children": [
        2
      ],
      "matrix": [
        1.0,
        0.0,
        0.0,
        0.0,
        0.0,
        0.0,
        1.0,
        0.0,
        0.0,
        -1.0,
        0.0,
        0.0,
        0.0,
        0.0,
        0.0,
        1.0
      ],
      "name": "2c56b547f9d44b4597c27b2d72558db4.fbx"
    },
    {
      "children": [
        3
      ],
      "name": "RootNode"
    },
    {
      "children": [
        4
      ],
      "matrix": [
        64.06253009434384,
        -67.87710252165841,
        -35.89832399007944,
        0.0,
        35.89832367633409,
        67.8031797129693,
        -64.14076435591561,
        0.0,
        67.87710268758966,
        28.20330207965399,
        67.80317954685712,
        0.0,
        0.0,
        0.0,
        0.0,
        1.0
      ],
      "name": "House"
    },
    {
      "mesh": 0,
      "name": "House_atlas_0"
    }
  ],
  "samplers": [
    {
      "magFilter": 9729,
      "minFilter": 9987,
      "wrapS": 10497,
      "wrapT": 10497
    }
  ],
  "scene": 0,
  "scenes": [
    {
      "name": "Sketchfab_Scene",
      "nodes": [
        0
      ]
    }
  ],
  "textures": [
    {
      "sampler": 0,
      "source": 0
    },
    {
      "sampler": 0,
      "source": 1
    },
    {
      "sampler": 0,
      "source": 2
    }
  ]
}
