{
  "accessors": [
    {
      "bufferView": 2,
      "componentType": 5126,
      "count": 4752,
      "max": [
        16.22257423400879,
        33.7254753112793,
        2.6136293411254883
      ],
      "min": [
        -54.4061279296875,
        -6.098323822021484,
        -23.184213638305664
      ],
      "type": "VEC3"
    },
    {
      "bufferView": 2,
      "byteOffset": 57024,
      "componentType": 5126,
      "count": 4752,
      "max": [
        1.0,
        1.0,
        1.0
      ],
      "min": [
        -1.0,
        -1.0,
        -1.0
      ],
      "type": "VEC3"
    },
    {
      "bufferView": 1,
      "componentType": 5126,
      "count": 4752,
      "max": [
        0.9999889135360718,
        0.9954168200492859
      ],
      "min": [
        -4.5615858312864077e-10,
        -0.0003298704978078604
      ],
      "type": "VEC2"
    },
    {
      "bufferView": 0,
      "componentType": 5125,
      "count": 11580,
      "type": "SCALAR"
    }
  ],
  "asset": {
    "extras": {
      "author": "scailman (https://sketchfab.com/scailman)",
      "license": "CC-BY-4.0 (http://creativecommons.org/licenses/by/4.0/)",
      "source": "https://sketchfab.com/3d-models/garden-lounge-cd2c67402ea8426c90d0fcebb0fa60b4",
      "title": "Garden Lounge"
    },
    "generator": "Sketchfab-12.63.0",
    "version": "2.0"
  },
  "bufferViews": [
    {
      "buffer": 0,
      "byteLength": 46320,
      "name": "floatBufferViews",
      "target": 34963
    },
    {
      "buffer": 0,
      "byteLength": 38016,
      "byteOffset": 46320,
      "byteStride": 8,
      "name": "floatBufferViews",
      "target": 34962
    },
    {
      "buffer": 0,
      "byteLength": 114048,
      "byteOffset": 84336,
      "byteStride": 12,
      "name": "floatBufferViews",
      "target": 34962
    }
  ],
  "buffers": [
    {
      "byteLength": 198384,
      "uri": "scene.bin"
    }
  ],
  "images": [
    {
      "uri": "textures/LoungerTex_baseColor.png"
    }
  ],
  "materials": [
    {
      "doubleSided": true,
      "name": "LoungerTex",
      "pbrMetallicRoughness": {
        "baseColorTexture": {
          "index": 0
        },
        "metallicFactor": 0.0,
        "roughnessFactor": 0.8929713596
      }
    }
  ],
  "meshes": [
    {
      "name": "GardenLounger_LoungerTex_0",
      "primitives": [
        {
          "attributes": {
            "NORMAL": 1,
            "POSITION": 0,
            "TEXCOORD_0": 2
          },
          "indices": 3,
          "material": 0,
          "mode": 4
        }
      ]
    }
  ],
  "nodes": [
    {
      "children": [
        1
      ],
      "matrix": [
        1.0,
        0.0,
        0.0,
        0.0,
        0.0,
        2.220446049250313e-16,
        -1.0,
        0.0,
        0.0,
        1.0,
        2.220446049250313e-16,
        0.0,
        0.0,
        0.0,
        0.0,
        1.0
      ],
      "name": "Sketchfab_model"
    },
    {
      "children": [
        2
      ],
      "matrix": [
        1.0,
        0.0,
        0.0,
        0.0,
        0.0,
        0.0,
        1.0,
        0.0,
        0.0,
        -1.0,
        0.0,
        0.0,
        0.0,
        0.0,
        0.0,
        1.0
      ],
      "name": "GardenLounger.FBX"
    },
    {
      "children": [
        3
      ],
      "name": "RootNode"
    },
    {
      "children": [
        4
      ],
      "matrix": [
        1.0,
        0.0,
        0.0,
        0.0,
        0.0,
        2.220446049250313e-16,
        -1.0,
        0.0,
        0.0,
        1.0,
        2.220446049250313e-16,
        0.0,
        -1.3113021850585938e-06,
        0.0,
        0.0,
        1.0
      ],
      "name": "GardenLounger"
    },
    {
      "children": [
        5
      ],
      "matrix": [
        -3.3187972198362693e-09,
        -0.024923743680119247,
        -1.4855711036829177e-09,
        0.0,
        -1.9628957486530026e-16,
        -1.4855707706159493e-09,
        0.02492373809218402,
        0.0,
        -0.024923730641603248,
        3.318795483652845e-09,
        1.526138347652522e-18,
        0.0,
        -0.25634801387786865,
        -0.47583845257759094,
        0.15111306309700012,
        1.0
      ],
      "name": "Object_4"
    },
    {
      "mesh": 0,
      "name": "GardenLounger_LoungerTex_0"
    }
  ],
  "samplers": [
    {
      "magFilter": 9729,
      "minFilter": 9987,
      "wrapS": 10497,
      "wrapT": 10497
    }
  ],
  "scene": 0,
  "scenes": [
    {
      "name": "Sketchfab_Scene",
      "nodes": [
        0
      ]
    }
  ],
  "textures": [
    {
      "sampler": 0,
      "source": 0
    }
  ]
}
